<svg t="1687186903625" viewBox="0 0 1024 1024" version="1.1" xmlns="http://www.w3.org/2000/svg" p-id="3304" width="200" height="200"><path d="M372.363636 93.090909a93.090909 93.090909 0 1 1 93.090909 93.090909 93.090909 93.090909 0 0 1-93.090909-93.090909z m640.465455 325.818182L837.818182 279.272727v-46.545454L651.636364 465.454545H558.545455l93.090909 93.09091v94.394181a46.545455 46.545455 0 1 1-93.090909 0V605.090909L372.363636 465.454545H279.272727a93.090909 93.090909 0 0 0-74.472727 41.518546A110.685091 110.685091 0 0 0 116.084364 465.454545 100.165818 100.165818 0 0 0 0 557.428364C0 679.563636 59.112727 695.482182 59.112727 695.482182a30.72 30.72 0 0 0 10.705455 2.141091A23.552 23.552 0 0 0 93.090909 674.909091V558.545455a45.614545 45.614545 0 0 1 44.683636-46.545455h1.861819A46.545455 46.545455 0 0 1 186.181818 558.545455v187.48509l-27.927273 55.854546a149.783273 149.783273 0 0 0-18.618181 55.854545v143.546182a22.714182 22.714182 0 0 0 22.714181 22.714182 23.738182 23.738182 0 0 0 23.831273-22.714182V885.666909a34.164364 34.164364 0 0 1 9.309091-27.927273l83.781818-111.709091V837.818182l43.473455 169.053091a23.831273 23.831273 0 0 0 22.528 17.128727 23.272727 23.272727 0 0 0 23.272727-23.272727v-1.489455l-22.528-149.876363a55.854545 55.854545 0 0 1 2.327273-21.969455l5.399273-16.197818L372.363636 744.727273h186.181819v93.090909l43.380363 169.053091a23.831273 23.831273 0 0 0 22.621091 17.128727 23.272727 23.272727 0 0 0 23.272727-23.272727l-22.434909-151.365818a55.854545 55.854545 0 0 1 2.327273-21.969455L651.636364 744.727273a81.640727 81.640727 0 0 0 86.946909-61.533091L791.272727 418.909091a55.854545 55.854545 0 0 0 66.094546 42.263273 52.317091 52.317091 0 0 0 13.312-6.516364l83.781818 10.798545a67.118545 67.118545 0 0 0 36.491636 9.309091 30.813091 30.813091 0 0 0 33.047273-29.416727 37.794909 37.794909 0 0 0-11.170909-26.437818zM558.545455 325.818182a47.476364 47.476364 0 0 0-46.545455-46.545455h-93.090909a44.869818 44.869818 0 0 0-46.545455 46.545455V465.454545h186.181819z" p-id="3305"></path></svg>